<svg version="1.1" id="Map" class="gen-by-synoptic-designer" xmlns="http://www.w3.org/2000/svg" xmlns:xlink="http://www.w3.org/1999/xlink" viewBox="400 400 1580 2508" xml:space="preserve"><polygon id="100" title="" points="822,1482,851,1426,908,1467,896,1488,890,1503" /><polygon id="101" title="" points="820,1539,831,1492,888,1507,880,1547" /><polygon id="101WC" title="" points="822,1490,828,1491,819,1536,814,1535" /><polygon id="102" title="" points="811,1542,880,1553,877,1595,807,1596" /><polygon id="103" title="" points="807,1599,877,1601,879,1644,810,1654" /><polygon id="104" title="" points="810,1659,879,1649,889,1689,821,1709" /><polygon id="105" title="" points="831,1710,889,1692,907,1727,861,1766" /><polygon id="105WC" title="" points="825,1713,830,1714,858,1764,854,1769" /><polygon id="C106" title="" points="859,1777,897,1748,921,1751,934,1763,893,1812" /><polygon id="C107" title="" points="941,1766,973,1784,947,1845,901,1820" /><polygon id="C108" title="" points="992,1781,980,1789,955,1847,1009,1860,1018,1787" /><polygon id="C109" title="" points="1025,1793,1081,1799,1076,1847,1071,1859,1044,1856,1034,1865,1015,1861" /><polygon id="C109WC" title="" points="1048,1858,1049,1864,1067,1866,1071,1861" /><polygon id="C110" title="" points="1134,1803,1132,1873,1116,1871,1112,1861,1092,1860,1088,1847,1092,1801" /><polygon id="C110WC" title="" points="1104,1868,1107,1863,1092,1862,1093,1868" /><polygon id="VIP110" title="" points="1122,1789,1140,1789,1139,1803,1122,1802" /><polygon id="VIP111" title="" points="1150,1791,1194,1791,1194,1873,1147,1872" /><polygon id="VIP112" title="" points="1204,1792,1251,1791,1251,1872,1203,1874" /><polygon id="VIP113" title="" points="1262,1789,1306,1788,1305,1800,1263,1802" /><polygon id="C113" title="" points="1265,1871,1261,1802,1306,1803,1308,1860,1288,1861,1284,1871" /><polygon id="C113WC" title="" points="1290,1863,1293,1868,1306,1868,1305,1862" /><polygon id="C114" title="" points="1316,1787,1369,1780,1382,1862,1362,1864,1353,1855,1322,1858" /><polygon id="C114WC" title="" points="1328,1861,1329,1865,1350,1862,1350,1858" /><polygon id="C115" title="" points="1381,1787,1416,1779,1442,1848,1389,1861" /><polygon id="C116" title="" points="1426,1784,1458,1766,1491,1811,1448,1834" /><polygon id="C116WC" title="" points="1451,1837,1491,1814,1494,1818,1452,1842" /><polygon id="C117" title="" points="1463,1762,1483,1741,1533,1783,1502,1815" /><polygon id="C118" title="" points="1499,1748,1511,1732,1554,1757,1538,1780" /><polygon id="119" title="" points="1492,1718,1501,1696,1570,1726,1554,1757" /><polygon id="120" title="" points="1511,1668,1547,1660,1587,1665,1571,1720,1504,1693" /><polygon id="121" title="" points="1521,1601,1590,1598,1587,1662,1517,1648" /><polygon id="122" title="" points="1517,1552,1531,1543,1586,1533,1590,1594,1521,1596" /><polygon id="123" title="" points="1516,1496,1571,1480,1584,1530,1549,1536,1523,1524" /><polygon id="123WC" title="" points="1512,1500,1506,1502,1510,1515,1518,1514" /><polygon id="124WC" title="" points="1499,1477,1504,1476,1508,1484,1503,1487" /><polygon id="124" title="" points="1504,1470,1555,1439,1570,1469,1535,1484,1510,1480" /><polygon id="C125" title="" points="1527,1426,1539,1416,1553,1435,1541,1446" /><polygon id="C126" title="" points="1463,1433,1501,1380,1532,1410,1481,1451" /><polygon id="C127" title="" points="1427,1412,1446,1359,1490,1383,1457,1428" /><polygon id="C127WC" title="" points="1450,1359,1453,1355,1491,1376,1490,1380" /><polygon id="C128" title="" points="1392,1337,1443,1348,1416,1416,1381,1409" /><polygon id="C129" title="" points="1363,1334,1354,1341,1324,1337,1313,1408,1369,1414,1381,1335" /><polygon id="C129WC" title="" points="1330,1329,1352,1333,1351,1337,1329,1334" /><polygon id="C130" title="" points="1266,1323,1262,1390,1306,1393,1310,1335,1286,1333,1278,1324" /><polygon id="C130WC" title="" points="1293,1327,1291,1332,1304,1333,1306,1327" /><polygon id="VIP131" title="" points="1204,1323,1252,1323,1250,1405,1202,1401" /><polygon id="VIP132" title="" points="1146,1323,1194,1323,1194,1404,1146,1404" /><polygon id="VIP130" title="" points="1259,1393,1259,1406,1306,1407,1305,1394" /><polygon id="VIP133" title="" points="1121,1393,1138,1393,1138,1405,1121,1405" /><polygon id="C133" title="" points="1091,1395,1089,1335,1113,1334,1118,1324,1133,1323,1135,1393" /><polygon id="C133WC" title="" points="1094,1328,1092,1332,1106,1332,1107,1328" /><polygon id="C134" title="" points="1042,1340,1075,1337,1079,1397,1025,1404,1015,1334,1034,1332" /><polygon id="C134WC" title="" points="1046,1330,1069,1330,1069,1334,1048,1337" /><polygon id="C135" title="" points="955,1347,1007,1336,1017,1409,981,1417" /><polygon id="C136" title="" points="902,1376,948,1350,972,1411,940,1429" /><polygon id="C137" title="" points="866,1422,899,1389,933,1435,923,1443,897,1447" /><polygon id="C137WC" title="" points="867,1418,863,1415,895,1383,896,1389" /><polygon id="200" title="" points="872,1228,907,1216,934,1297,910,1310" /><polygon id="201" title="" points="816,1275,875,1242,904,1312,860,1336" /><polygon id="201wc" title="" points="815,1266,818,1272,872,1241,871,1236" /><polygon id="202" title="" points="758,1309,806,1265,855,1338,824,1365" /><polygon id="203" title="" points="711,1365,752,1313,818,1371,788,1414" /><polygon id="204" title="" points="692,1442,721,1379,784,1421,763,1464" /><polygon id="204WC" title="" points="689,1441,685,1436,714,1376,717,1381" /><polygon id="205" title="" points="679,1502,691,1449,762,1469,751,1515" /><polygon id="205WC" title="" points="676,1501,672,1499,682,1450,687,1450" /><polygon id="206" title="" points="668,1507,752,1520,746,1572,662,1570" /><polygon id="207" title="" points="662,1578,747,1579,747,1615,663,1618" /><polygon id="208" title="" points="662,1623,746,1621,750,1672,669,1686" /><polygon id="209" title="" points="664,1692,752,1678,762,1725,676,1750" /><polygon id="210" title="" points="691,1754,764,1732,785,1775,720,1817" /><polygon id="210WC" title="" points="685,1757,690,1757,717,1816,713,1820" /><polygon id="211" title="" points="713,1832,788,1781,820,1823,754,1883" /><polygon id="212" title="" points="758,1887,824,1826,857,1856,807,1928" /><polygon id="213" title="" points="816,1919,863,1859,905,1883,876,1952" /><polygon id="213WC" title="" points="815,1927,819,1923,874,1954,870,1961" /><polygon id="214" title="" points="910,1887,936,1895,907,1981,873,1965" /><polygon id="C215" title="" points="937,1900,977,1908,970,1983,917,1977" /><polygon id="C215WC" title="" points="921,1985,922,1980,963,1985,962,1989" /><polygon id="C216" title="" points="984,1909,1037,1915,1025,2006,972,2001" /><polygon id="C217" title="" points="1043,1916,1098,1920,1092,2013,1064,2011,1033,1989" /><polygon id="VIP218" title="" points="1106,1922,1161,1923,1160,2015,1100,2014" /><polygon id="VIP219" title="" points="1168,1924,1230,1924,1231,1978,1165,1979" /><polygon id="VIP220" title="" points="1236,1923,1291,1921,1297,1999,1235,2001" /><polygon id="VIP220WC" title="" points="1245,2009,1246,2005,1294,2003,1295,2011" /><polygon id="C221" title="" points="1298,1921,1354,1917,1366,2008,1303,2013" /><polygon id="C222" title="" points="1360,1915,1413,1909,1423,2003,1371,2007" /><polygon id="C223" title="" points="1418,1908,1461,1900,1480,1976,1429,1985" /><polygon id="C223WC" title="" points="1433,1987,1474,1979,1476,1985,1433,1992" /><polygon id="224" title="" points="1463,1895,1492,1883,1523,1952,1490,1969" /><polygon id="224WC" title="" points="1494,1975,1493,1970,1504,1965,1506,1970" /><polygon id="225" title="" points="1498,1881,1541,1856,1583,1909,1523,1942" /><polygon id="226" title="" points="1546,1852,1570,1831,1625,1891,1589,1910" /><polygon id="226WC" title="" points="1596,1912,1599,1916,1609,1906,1606,1903" /><polygon id="227" title="" points="1572,1827,1591,1809,1685,1885,1634,1897" /><polygon id="228" title="" points="1684,1881,1595,1802,1612,1778,1717,1833" /><polygon id="228WC" title="" points="1691,1882,1689,1878,1716,1840,1720,1841" /><polygon id="229" title="" points="1615,1775,1625,1748,1747,1801,1734,1830" /><polygon id="230" title="" points="1628,1740,1636,1717,1754,1740,1737,1792" /><polygon id="230WC" title="" points="1759,1743,1754,1742,1740,1790,1744,1793" /><polygon id="231" title="" points="1645,1656,1778,1670,1768,1736,1638,1709" /><polygon id="232" title="" points="1649,1600,1768,1599,1765,1662,1648,1650" /><polygon id="232WC" title="" points="1775,1602,1770,1602,1767,1662,1772,1662" /><polygon id="233" title="" points="1647,1545,1779,1531,1783,1595,1649,1597" /><polygon id="234" title="" points="1639,1483,1768,1456,1779,1522,1647,1534" /><polygon id="235" title="" points="1626,1447,1732,1397,1752,1453,1636,1477" /><polygon id="235WC" title="" points="1740,1395,1735,1397,1754,1453,1760,1451" /><polygon id="236" title="" points="1611,1414,1690,1367,1737,1385,1703,1406,1623,1440" /><polygon id="237" title="" points="1590,1387,1645,1345,1676,1364,1670,1376,1609,1410" /><polygon id="237WC" title="" points="1655,1337,1661,1334,1680,1360,1676,1363" /><polygon id="238" title="" points="1549,1347,1591,1294,1640,1343,1586,1384" /><polygon id="239" title="" points="1514,1322,1553,1247,1570,1259,1589,1287,1545,1343" /><polygon id="239WC" title="" points="1593,1281,1598,1278,1584,1270,1582,1273" /><polygon id="240" title="" points="1482,1307,1518,1227,1548,1239,1511,1321" /><polygon id="241" title="" points="1463,1297,1489,1217,1513,1227,1477,1304" /><polygon id="C242" title="" points="1418,1287,1427,1211,1479,1221,1462,1294" /><polygon id="C242WC" title="" points="1433,1208,1434,1204,1478,1211,1476,1218" /><polygon id="C243" title="" points="1371,1189,1422,1195,1410,1285,1361,1279" /><polygon id="C244" title="" points="1298,1274,1304,1182,1365,1185,1356,1278" /><polygon id="VIP245" title="" points="1292,1272,1237,1272,1237,1180,1298,1180" /><polygon id="VIP246" title="" points="1232,1182,1166,1185,1167,1271,1230,1271" /><polygon id="VIP247" title="" points="1099,1196,1161,1195,1161,1271,1104,1272" /><polygon id="VIP247WC" title="" points="1101,1190,1100,1194,1156,1192,1160,1188" /><polygon id="C248" title="" points="1031,1188,1093,1182,1099,1275,1041,1279" /><polygon id="C249" title="" points="974,1195,1027,1188,1036,1280,986,1284" /><polygon id="C250" title="" points="921,1218,972,1210,980,1286,936,1294" /><polygon id="C250WC" title="" points="924,1210,924,1216,966,1209,965,1204" /><polygon id="300" title="" points="864,1039,907,1032,914,1081,873,1088" /><polygon id="301" title="" points="782,1078,863,1056,868,1089,796,1109" /><polygon id="301WC" title="" points="784,1068,855,1048,855,1055,787,1073" /><polygon id="302" title="" points="699,1099,774,1064,792,1112,725,1142" /><polygon id="303" title="" points="627,1152,692,1103,721,1144,658,1191" /><polygon id="304" title="" points="562,1221,618,1158,651,1197,602,1251" /><polygon id="305" title="" points="515,1291,555,1228,594,1260,619,1321,616,1340" /><polygon id="306" title="" points="611,1348,511,1296,478,1369,584,1407" /><polygon id="307" title="" points="474,1469,489,1390,583,1414,569,1482" /><polygon id="307WC" title="" points="472,1465,468,1463,480,1392,484,1394" /><polygon id="308" title="" points="459,1471,567,1488,561,1555,448,1552" /><polygon id="309" title="" points="449,1560,449,1632,560,1630,560,1563" /><polygon id="310" title="" points="448,1642,559,1641,528,1713,457,1726" /><polygon id="311" title="" points="457,1732,530,1722,546,1793,475,1816" /><polygon id="312" title="" points="493,1818,546,1799,577,1866,528,1892" /><polygon id="312WC" title="" points="486,1824,492,1823,521,1888,517,1890" /><polygon id="313" title="" points="513,1906,580,1874,590,1888,597,1941,559,1970" /><polygon id="314" title="" points="564,1975,604,1946,651,1997,617,2038" /><polygon id="315" title="" points="626,2042,657,2003,720,2051,690,2092" /><polygon id="316" title="" points="701,2096,728,2055,792,2085,776,2132" /><polygon id="317" title="" points="786,2117,798,2087,866,2106,862,2141" /><polygon id="317WC" title="" points="787,2127,789,2123,856,2142,855,2147" /><polygon id="318" title="" points="874,2108,911,2115,906,2163,863,2158" /><polygon id="319" title="" points="915,2115,957,2119,952,2167,909,2163" /><polygon id="320" title="" points="966,2122,1043,2130,1039,2183,956,2173" /><polygon id="321" title="" points="1051,2131,1121,2134,1118,2188,1045,2183" /><polygon id="322" title="" points="1127,2134,1196,2136,1197,2188,1124,2189" /><polygon id="323" title="" points="1203,2134,1273,2134,1272,2169,1203,2171" /><polygon id="323WC" title="" points="1208,2174,1271,2175,1270,2183,1206,2180" /><polygon id="324" title="" points="1280,2133,1349,2130,1353,2183,1282,2189" /><polygon id="325" title="" points="1357,2129,1434,2122,1441,2172,1359,2182" /><polygon id="326" title="" points="1444,2120,1484,2115,1491,2163,1448,2168" /><polygon id="327" title="" points="1488,2114,1525,2108,1534,2158,1493,2164" /><polygon id="328" title="" points="1533,2107,1600,2088,1622,2134,1539,2158" /><polygon id="329" title="" points="1610,2084,1673,2055,1702,2096,1626,2133" /><polygon id="330" title="" points="1681,2050,1743,2004,1775,2040,1711,2090" /><polygon id="331" title="" points="1748,1998,1797,1943,1823,1963,1769,2023" /><polygon id="331WC" title="" points="1774,2026,1824,1970,1830,1975,1779,2029" /><polygon id="332" title="" points="1804,1939,1851,1882,1886,1902,1839,1970" /><polygon id="333" title="" points="1852,1877,1885,1808,1923,1820,1890,1895" /><polygon id="334" title="" points="1903,1723,1941,1733,1925,1814,1887,1802" /><polygon id="335" title="" points="1912,1642,1932,1642,1923,1721,1905,1718" /><polygon id="335WC" title="" points="1935,1649,1943,1648,1936,1721,1928,1722" /><polygon id="336" title="" points="1910,1560,1950,1560,1953,1635,1912,1634" /><polygon id="337" title="" points="1902,1477,1942,1471,1947,1551,1910,1552" /><polygon id="338" title="" points="1875,1397,1925,1381,1941,1462,1889,1471" /><polygon id="339" title="" points="1841,1320,1889,1298,1921,1375,1871,1389" /><polygon id="340" title="" points="1801,1258,1840,1226,1884,1293,1840,1314" /><polygon id="341" title="" points="1747,1198,1768,1171,1823,1233,1795,1251" /><polygon id="341WC" title="" points="1775,1170,1778,1167,1830,1225,1825,1230" /><polygon id="342" title="" points="1679,1143,1708,1105,1740,1127,1773,1154,1742,1193" /><polygon id="343" title="" points="1608,1111,1624,1064,1700,1098,1673,1142" /><polygon id="344" title="" points="1539,1040,1621,1061,1601,1109,1529,1089" /><polygon id="345" title="" points="1493,1033,1534,1039,1531,1057,1525,1089,1485,1077" /><polygon id="346" title="" points="1449,1029,1491,1032,1482,1080,1441,1075" /><polygon id="347" title="" points="1361,1013,1442,1021,1434,1076,1355,1066" /><polygon id="348" title="" points="1280,1007,1353,1011,1350,1067,1279,1062" /><polygon id="349" title="" points="1202,1007,1274,1008,1272,1061,1203,1062" /><polygon id="350" title="" points="1126,1026,1197,1025,1195,1060,1124,1061" /><polygon id="350WC" title="" points="1128,1017,1196,1015,1196,1021,1129,1023" /><polygon id="351" title="" points="1045,1012,1117,1010,1118,1061,1048,1065" /><polygon id="352" title="" points="957,1021,1039,1011,1042,1067,963,1076" /><polygon id="353" title="" points="908,1035,952,1029,956,1076,914,1081" /><polygon id="400" title="" points="334,1555,375,1556,375,1638,333,1639" /><polygon id="401" title="" points="334,1652,376,1650,383,1731,341,1737" /><polygon id="402" title="" points="344,1748,385,1741,402,1825,361,1837" /><polygon id="403" title="" points="364,1848,404,1833,436,1905,398,1925,383,1891" /><polygon id="404" title="" points="413,1931,441,1917,473,1995,459,2006" /><polygon id="404WC" title="" points="406,1941,412,1938,453,2006,449,2010" /><polygon id="405" title="" points="476,2025,490,2013,521,2054,506,2067" /><polygon id="405WC" title="" points="465,2021,461,2024,496,2067,499,2065" /><polygon id="406WC" title="" points="510,2088,516,2082,561,2120,558,2127" /><polygon id="406" title="" points="514,2073,528,2062,578,2105,567,2120" /><polygon id="407" title="" points="565,2135,584,2109,642,2154,626,2179" /><polygon id="408" title="" points="637,2185,650,2157,724,2190,712,2218,661,2196" /><polygon id="409" title="" points="722,2221,732,2194,811,2216,804,2244" /><polygon id="410" title="" points="820,2217,903,2231,900,2261,813,2246" /><polygon id="411" title="" points="914,2231,1000,2243,1000,2272,909,2262" /><polygon id="412" title="" points="1009,2242,1056,2245,1054,2275,1007,2272" /><polygon id="413" title="" points="1059,2247,1097,2247,1096,2275,1058,2274" /><polygon id="414" title="" points="1106,2259,1193,2261,1193,2279,1106,2277" /><polygon id="415" title="" points="1203,2249,1293,2246,1290,2277,1203,2279" /><polygon id="414WC" title="" points="1108,2247,1194,2248,1190,2255,1106,2253" /><polygon id="416" title="" points="1298,2248,1336,2247,1335,2274,1302,2276" /><polygon id="417" title="" points="1340,2245,1387,2241,1387,2272,1341,2276" /><polygon id="418" title="" points="1396,2241,1483,2231,1485,2264,1397,2272" /><polygon id="419" title="" points="1491,2231,1578,2216,1582,2247,1495,2261" /><polygon id="420" title="" points="1588,2214,1666,2192,1678,2219,1593,2247" /><polygon id="421" title="" points="1673,2189,1747,2157,1754,2174,1680,2208" /><polygon id="421WC" title="" points="1685,2210,1754,2179,1754,2185,1689,2214" /><polygon id="422" title="" points="1753,2152,1812,2110,1829,2134,1770,2178" /><polygon id="423" title="" points="1821,2104,1871,2059,1893,2082,1837,2127" /><polygon id="424" title="" points="1877,2055,1908,2014,1921,2025,1889,2065" /><polygon id="424WC" title="" points="1905,2063,1899,2061,1932,2021,1937,2025" /><polygon id="425" title="" points="1922,1993,1957,1939,1967,1921,1993,1936,1947,2011" /><polygon id="426" title="" points="1972,1911,2005,1838,2034,1847,1998,1926" /><polygon id="427" title="" points="2023,1743,2042,1745,2025,1833,2007,1826" /><polygon id="427WC" title="" points="2044,1754,2049,1756,2035,1829,2028,1826" /><polygon id="428" title="" points="2034,1648,2063,1649,2054,1735,2023,1730" /><polygon id="429" title="" points="2035,1557,2065,1555,2064,1641,2034,1639" /><polygon id="430" title="" points="2025,1464,2055,1460,2063,1544,2055,1544,2033,1546" /><polygon id="431" title="" points="2008,1369,2037,1359,2053,1450,2023,1454" /><polygon id="432" title="" points="1973,1282,1986,1277,2022,1352,2007,1358" /><polygon id="432WC" title="" points="1992,1278,1998,1272,2028,1345,2023,1347" /><polygon id="433" title="" points="1923,1200,1937,1188,1984,1265,1968,1271" /><polygon id="433WC" title="" points="1945,1190,1950,1185,1991,1256,1987,1258" /><polygon id="434" title="" points="1876,1139,1888,1129,1921,1170,1906,1181" /><polygon id="434WC" title="" points="1897,1133,1901,1130,1935,1172,1931,1177" /><polygon id="435WC" title="" points="1838,1076,1841,1071,1887,1109,1881,1115,1867,1097" /><polygon id="435" title="" points="1819,1091,1829,1075,1883,1121,1870,1132" /><polygon id="436" title="" points="1754,1040,1768,1016,1833,1062,1812,1085" /><polygon id="437" title="" points="1673,1005,1681,988,1755,1021,1747,1037" /><polygon id="437WC" title="" points="1685,985,1688,982,1725,997,1753,1012,1750,1016" /><polygon id="438" title="" points="1586,978,1590,949,1676,972,1664,1001" /><polygon id="439" title="" points="1495,934,1583,946,1579,977,1492,964" /><polygon id="440" title="" points="1398,936,1484,945,1483,961,1395,955" /><polygon id="440WC" title="" points="1403,932,1406,927,1480,934,1478,939" /><polygon id="441" title="" points="1341,918,1389,921,1387,951,1340,949" /><polygon id="442" title="" points="1302,919,1339,919,1337,947,1301,947" /><polygon id="443" title="" points="1203,928,1290,928,1289,947,1203,945" /><polygon id="443WC" title="" points="1206,923,1206,917,1288,916,1289,925" /><polygon id="444" title="" points="1107,915,1192,914,1194,945,1105,947" /><polygon id="445" title="" points="1059,915,1096,915,1097,949,1060,949" /><polygon id="446" title="" points="1008,921,1056,918,1057,947,1008,953" /><polygon id="447" title="" points="911,945,998,935,1000,954,914,964" /><polygon id="447WC" title="" points="917,935,920,941,995,932,995,926" /><polygon id="448" title="" points="813,947,901,934,904,964,816,978" /><polygon id="449" title="" points="719,974,803,947,808,980,732,1003" /><polygon id="450" title="" points="643,1021,716,989,725,1005,651,1039" /><polygon id="450WC" title="" points="645,1016,642,1012,705,982,709,988" /><polygon id="451" title="" points="565,1060,626,1015,642,1042,585,1086" /><polygon id="452" title="" points="504,1113,560,1064,584,1100,536,1141" /><polygon id="453" title="" points="466,1181,507,1128,531,1147,489,1199" /><polygon id="453WC" title="" points="463,1168,499,1127,499,1130,469,1173" /><polygon id="454WC" title="" points="410,1256,454,1188,447,1184,405,1251" /><polygon id="454" title="" points="413,1263,459,1188,483,1206,441,1279" /><polygon id="455" title="" points="363,1345,399,1268,438,1285,404,1361" /><polygon id="456" title="" points="356,1448,373,1364,403,1372,385,1454" /><polygon id="457" title="" points="355,1460,383,1465,377,1545,348,1545" /><polygon id="456WC" title="" points="363,1361,368,1364,353,1444,348,1443" /><polygon id="457WC" title="" points="343,1466,349,1468,342,1537,336,1539" /><polygon id="504" title="" points="275,2155,387,2065,424,2107,309,2199" /><polygon id="505" title="" points="315,2208,428,2115,476,2159,388,2276" /><polygon id="506" title="" points="394,2280,485,2165,544,2212,454,2327" /><polygon id="507" title="" points="467,2336,551,2218,602,2246,548,2381" /><polygon id="508" title="" points="555,2384,612,2250,676,2279,617,2412" /><polygon id="509" title="" points="684,2282,747,2302,723,2448,624,2416" /><polygon id="510" title="" points="760,2306,823,2314,834,2334,818,2463,735,2448" /><polygon id="511" title="" points="832,2316,948,2330,946,2335,916,2333,921,2373,909,2475,827,2463,841,2365,851,2325,830,2321" /><polygon id="512" title="" points="934,2347,921,2474,1019,2484,1024,2387,1027,2352,1047,2340,994,2333,951,2331,950,2344" /><polygon id="513" title="" points="1056,2340,1144,2342,1142,2347,1129,2349,1128,2489,1028,2483,1036,2353" /><polygon id="514" title="" points="1152,2343,1228,2344,1244,2356,1243,2460,1136,2463,1139,2359" /><polygon id="515" title="" points="1255,2395,1255,2488,1357,2481,1345,2355,1328,2340,1240,2342,1239,2347,1255,2348" /><polygon id="516" title="" points="1336,2339,1426,2331,1446,2345,1462,2475,1366,2482,1356,2384,1366,2341,1336,2342" /><polygon id="517" title="" points="1437,2330,1552,2318,1537,2332,1554,2463,1473,2472,1456,2338,1438,2336" /><polygon id="518" title="" points="1560,2315,1625,2305,1647,2448,1564,2461,1549,2331" /><polygon id="519" title="" points="1632,2303,1696,2283,1753,2416,1658,2445" /><polygon id="520" title="" points="1705,2279,1790,2239,1851,2371,1765,2410" /><polygon id="521" title="" points="1800,2236,1851,2202,1944,2313,1860,2368" /><polygon id="522" title="" points="1859,2194,1921,2146,2008,2261,1949,2310" /><polygon id="523" title="" points="1928,2141,1963,2101,2078,2190,2019,2254" /><polygon id="524" title="" points="1970,2092,2011,2039,2126,2130,2083,2185" /><polygon id="525" title="" points="2019,2030,2043,2001,2160,2086,2130,2125" /><polygon id="526" title="" points="2104,1344,2247,1318,2256,1365,2111,1392" /><polygon id="527" title="" points="2081,1285,2211,1218,2247,1301,2101,1335" /><polygon id="528" title="" points="2041,1199,2174,1136,2211,1213,2076,1273" /><polygon id="529" title="" points="2010,1148,2121,1054,2170,1121,2038,1187" /><polygon id="530" title="" points="2080,1001,1968,1092,2003,1139,2119,1050" /><polygon id="531" title="" points="2004,920,2077,992,1962,1085,1916,1039" /><polygon id="532" title="" points="1927,865,1998,917,1909,1035,1841,981" /><polygon id="533" title="" points="1843,812,1923,860,1830,974,1785,946" /><polygon id="534" title="" points="1757,775,1834,809,1774,942,1696,910" /><polygon id="535" title="" points="1654,742,1713,760,1747,771,1685,906,1631,888" /><polygon id="536" title="" points="1566,730,1642,741,1622,887,1560,875,1545,858" /><polygon id="537" title="" points="1472,717,1554,726,1536,855,1553,873,1435,859,1454,844" /><polygon id="538" title="" points="1365,707,1465,717,1448,847,1432,847,1430,860,1337,853,1358,809" /><polygon id="539" title="" points="1258,703,1356,704,1345,835,1326,850,1241,845,1254,805" /><polygon id="540" title="" points="1137,703,1246,702,1243,831,1230,848,1151,848,1138,835" /><polygon id="541" title="" points="1028,706,1125,701,1127,802,1110,835,1142,846,1057,850,1036,838" /><polygon id="542" title="" points="922,716,1017,706,1024,807,1004,841,1047,848,957,858,933,849" /><polygon id="543" title="" points="827,728,910,719,924,842,948,858,829,873,842,850" /><polygon id="544" title="" points="736,741,816,728,834,857,823,875,762,887" /><polygon id="545" title="" points="626,775,726,744,751,887,687,905" /><polygon id="546" title="" points="548,809,619,778,674,912,605,943" /><polygon id="547" title="" points="458,860,537,812,596,946,548,975" /><polygon id="548" title="" points="387,913,451,865,540,982,479,1030" /><polygon id="549" title="" points="305,993,380,919,472,1035,422,1083" /><polygon id="550" title="" points="245,1072,300,1002,414,1093,361,1163" /><polygon id="551" title="" points="191,1164,237,1083,353,1168,327,1219" /><polygon id="552" title="" points="162,1233,189,1175,321,1234,295,1293" /><polygon id="553" title="" points="138,1288,159,1241,289,1306,275,1336" /><polygon id="MB" title="" points="1736,2115,1855,2012,1863,2025,1803,2086,1723,2148,1591,2197,1568,2187,1691,2143" /><polygon id="ST7E1" title="" points="1934,1312,1954,1304,1979,1364,1963,1373" /><polygon id="ST7E2" title="" points="1909,1253,1926,1246,1952,1299,1935,1309" /><polygon id="ST7E3" title="" points="1868,1201,1886,1191,1925,1241,1907,1250" /><polygon id="ST7E4" title="" points="1828,1153,1844,1140,1883,1186,1865,1200" /><polygon id="ST7E5" title="" points="1779,1110,1791,1097,1837,1135,1825,1151" /><polygon id="ST7E6" title="" points="1725,1071,1738,1055,1788,1093,1774,1111" /><polygon id="ST7E7" title="" points="1667,1044,1676,1027,1731,1053,1723,1070" /><polygon id="ST7E8" title="" points="1609,1019,1618,1004,1672,1025,1663,1043" /><polygon id="ST7E9" title="" points="1552,1009,1557,992,1605,1000,1602,1018" /><polygon id="ST7E10" title="" points="1509,1002,1515,986,1550,991,1549,1008" /><polygon id="ST7E11" title="" points="1465,995,1468,979,1507,983,1506,1001" /><polygon id="ST7E12" title="" points="1421,990,1425,973,1464,978,1461,994" /><polygon id="ST7E13" title="" points="1377,985,1377,969,1421,971,1417,988" /><polygon id="ST7E14" title="" points="1334,982,1335,966,1373,966,1375,985" /><polygon id="ST7E15" title="" points="1288,980,1290,963,1330,964,1329,982" /><polygon id="ST7E16" title="" points="1246,976,1246,962,1286,962,1285,978" /><polygon id="ST7E17" title="" points="1200,978,1200,963,1240,962,1240,978" /><polygon id="ST7E18" title="" points="1158,978,1158,962,1196,962,1196,976" /><polygon id="ST7E19" title="" points="1113,979,1113,962,1150,961,1154,977" /><polygon id="ST7E20" title="" points="1070,964,1108,962,1109,978,1069,981" /><polygon id="ST7E21" title="" points="1024,967,1062,965,1064,980,1024,983" /><polygon id="ST7E22" title="" points="980,987,979,970,1017,967,1020,984" /><polygon id="ST7E23" title="" points="935,975,974,972,976,988,936,994" /><polygon id="ST7E24" title="" points="892,998,889,981,930,976,932,994" /><polygon id="ST7E25" title="" points="844,990,884,984,889,1001,848,1007" /><polygon id="ST7E26" title="" points="790,999,840,990,845,1007,793,1017" /><polygon id="ST7E27" title="" points="736,1041,727,1026,780,1001,787,1018" /><polygon id="ST7E28" title="" points="674,1069,666,1054,720,1028,730,1045" /><polygon id="ST7E29" title="" points="609,1093,660,1056,671,1070,622,1108" /><polygon id="ST7W1" title="" points="801,2180,844,2187,838,2203,798,2197" /><polygon id="ST7W2" title="" points="848,2188,845,2206,885,2211,887,2194" /><polygon id="ST7W3" title="" points="892,2196,932,2200,930,2217,890,2213" /><polygon id="ST7W4" title="" points="936,2201,976,2205,974,2223,933,2219" /><polygon id="ST7W5" title="" points="981,2207,1035,2209,1034,2227,981,2225" /><polygon id="ST7W7" title="" points="1068,2214,1108,2215,1108,2231,1067,2232" /><polygon id="ST7W8" title="" points="1113,2215,1151,2216,1151,2232,1113,2232" /><polygon id="ST7W9" title="" points="1157,2216,1196,2216,1195,2233,1156,2233" /><polygon id="ST7W10" title="" points="1202,2217,1241,2217,1240,2232,1202,2232" /><polygon id="ST7W11" title="" points="1247,2217,1286,2216,1286,2232,1246,2233" /><polygon id="ST7W12" title="" points="1290,2216,1330,2215,1330,2231,1290,2233" /><polygon id="ST7W14" title="" points="1363,2210,1416,2206,1416,2219,1363,2223" /><polygon id="ST7W15" title="" points="1424,2205,1462,2200,1464,2217,1424,2222" /><polygon id="ST7W16" title="" points="1467,2200,1506,2194,1509,2211,1471,2216" /><polygon id="ST7W17" title="" points="1512,2193,1559,2185,1561,2202,1515,2209" /><polygon id="ST5NW1" title="" points="645,1909,652,1906,661,1918,655,1922" /><polygon id="ST5NW2" title="" points="658,1927,664,1922,674,1933,668,1938" /><polygon id="ST5NW3" title="" points="671,1943,677,1937,693,1953,687,1959" /><polygon id="ST5NW4" title="" points="692,1962,696,1957,709,1969,703,1974" /><polygon id="ST5NW5" title="" points="707,1977,712,1971,724,1981,718,1985" /><polygon id="ST5NW6" title="" points="724,1990,729,1984,741,1993,735,1998" /><polygon id="ST5NW7" title="" points="742,2002,747,1995,759,2003,755,2010" /><polygon id="ST5NW8" title="" points="760,2011,764,2006,783,2016,779,2022" /><polygon id="ST5NW9" title="" points="784,2024,787,2018,799,2023,795,2031" /><polygon id="ST5NW10" title="" points="805,2033,807,2025,820,2031,815,2038" /><polygon id="ST5W1" title="" points="856,2060,891,2066,886,2083,850,2078" /><polygon id="ST5W2" title="" points="895,2068,927,2073,923,2089,894,2086" /><polygon id="ST5W3" title="" points="932,2075,966,2079,964,2096,929,2091" /><polygon id="ST5W4" title="" points="970,2080,1005,2084,1002,2102,969,2097" /><polygon id="ST5W5" title="" points="1009,2085,1043,2087,1041,2103,1007,2103" /><polygon id="ST5W6" title="" points="1047,2089,1081,2090,1082,2107,1047,2105" /><polygon id="ST5W7" title="" points="1086,2092,1120,2093,1120,2109,1086,2110" /><polygon id="ST5W8" title="" points="1124,2093,1158,2093,1158,2110,1124,2110" /><polygon id="ST5W9" title="" points="1163,2094,1197,2094,1198,2112,1162,2111" /><polygon id="ST5W10" title="" points="1201,2095,1236,2095,1237,2112,1201,2112" /><polygon id="ST5W11" title="" points="1240,2095,1275,2095,1276,2111,1240,2112" /><polygon id="ST5W12" title="" points="1278,2094,1313,2092,1314,2109,1279,2111" /><polygon id="ST5W13" title="" points="1317,2092,1351,2090,1352,2108,1317,2109" /><polygon id="ST5W14" title="" points="1356,2089,1389,2086,1390,2104,1357,2106" /><polygon id="ST5W15" title="" points="1393,2085,1427,2081,1430,2096,1396,2103" /><polygon id="ST5W16" title="" points="1431,2080,1465,2075,1469,2093,1434,2097" /><polygon id="ST5W17" title="" points="1470,2074,1504,2069,1508,2086,1473,2092" /><polygon id="ST5W18" title="" points="1509,2068,1546,2061,1550,2078,1512,2084" /><polygon id="ST5SW1" title="" points="1549,2058,1583,2044,1592,2059,1557,2074" /><polygon id="ST5SW2" title="" points="1689,1983,1721,1959,1733,1972,1701,1997" /><polygon id="ST5SE1" title="" points="1761,1287,1776,1276,1801,1309,1784,1318" /><polygon id="ST5SE2" title="" points="1642,1175,1657,1163,1687,1186,1673,1201" /><polygon id="ST5E1" title="" points="1597,1156,1605,1139,1649,1157,1640,1174" /><polygon id="ST5E2" title="" points="1552,1136,1561,1119,1600,1134,1592,1153" /><polygon id="ST5E3" title="" points="1507,1127,1513,1109,1552,1117,1546,1136" /><polygon id="ST5E4" title="" points="1504,1127,1470,1120,1474,1104,1505,1108" /><polygon id="ST5E5" title="" points="1465,1119,1468,1102,1436,1098,1431,1114" /><polygon id="ST5E6" title="" points="1427,1115,1393,1110,1397,1093,1430,1095" /><polygon id="ST5E7" title="" points="1355,1106,1358,1090,1390,1091,1391,1110" /><polygon id="ST5E8" title="" points="1350,1105,1317,1103,1319,1086,1353,1087" /><polygon id="ST5E9" title="" points="1312,1103,1239,1102,1240,1084,1314,1086" /><polygon id="ST5E11" title="" points="1235,1100,1201,1102,1202,1083,1236,1083" /><polygon id="ST5E12" title="" points="1197,1102,1162,1102,1161,1084,1197,1084" /><polygon id="ST5E13" title="" points="1158,1102,1123,1102,1123,1083,1157,1084" /><polygon id="ST5E14" title="" points="1119,1101,1085,1103,1086,1083,1120,1083" /><polygon id="ST5E15" title="" points="1081,1103,1046,1104,1048,1086,1080,1084" /><polygon id="ST5E16" title="" points="1043,1105,1008,1108,1008,1089,1040,1086" /><polygon id="ST5E17" title="" points="1004,1107,970,1113,967,1094,1002,1090" /><polygon id="ST5E18" title="" points="965,1114,933,1117,927,1100,963,1094" /><polygon id="ST5E19" title="" points="929,1118,895,1125,890,1107,922,1100" /><polygon id="ST5E20" title="" points="891,1125,855,1133,851,1114,884,1107" /><polygon id="ST5NE1" title="" points="806,1155,808,1164,823,1158,820,1151" /><polygon id="ST5NE2" title="" points="786,1163,797,1158,803,1164,789,1172" /><polygon id="ST5NE3" title="" points="765,1184,763,1177,779,1167,783,1174" /><polygon id="ST5NE4" title="" points="754,1181,761,1188,746,1196,743,1189" /><polygon id="ST5NE5" title="" points="729,1209,743,1199,738,1192,727,1200" /><polygon id="ST5NE6" title="" points="711,1212,720,1205,726,1210,716,1219" /><polygon id="ST5NE7" title="" points="703,1232,697,1225,707,1217,714,1220" /><polygon id="ST5NE8" title="" points="681,1244,692,1230,700,1234,686,1251" /><polygon id="ST5NE9" title="" points="676,1265,669,1260,676,1250,683,1253" /><polygon id="ST5NE10" title="" points="656,1272,664,1264,672,1267,664,1278" /><polygon id="ST4NW1" title="" points="680,1877,688,1871,698,1885,693,1890" /><polygon id="ST4NW2" title="" points="696,1893,702,1889,710,1901,706,1905" /><polygon id="ST4NW3" title="" points="710,1910,715,1904,728,1920,723,1924" /><polygon id="ST4NW4" title="" points="728,1932,732,1925,744,1936,738,1941" /><polygon id="ST4NW5" title="" points="743,1944,748,1938,759,1947,755,1952" /><polygon id="ST4NW6" title="" points="760,1957,765,1952,777,1959,773,1964" /><polygon id="ST4NW7" title="" points="780,1968,785,1962,795,1970,792,1976" /><polygon id="ST4NW8" title="" points="796,1979,801,1972,819,1983,814,1988" /><polygon id="ST4NW9" title="" points="820,1992,824,1985,836,1992,833,1997" /><polygon id="ST4NW10" title="" points="840,1999,844,1993,857,1998,853,2005" /><polygon id="ST4W1" title="" points="908,2000,939,2007,937,2023,905,2018" /><polygon id="ST4W2" title="" points="944,2008,974,2013,970,2029,943,2025" /><polygon id="ST4W3" title="" points="976,2013,1009,2017,1007,2032,976,2031" /><polygon id="ST4W4" title="" points="1011,2017,1043,2022,1040,2038,1011,2035" /><polygon id="ST4W5" title="" points="1046,2023,1078,2024,1077,2040,1046,2039" /><polygon id="ST4W6" title="" points="1082,2026,1111,2028,1111,2043,1081,2042" /><polygon id="ST4W7" title="" points="1115,2028,1147,2029,1146,2045,1116,2044" /><polygon id="ST4W8" title="" points="1151,2029,1182,2030,1183,2046,1150,2046" /><polygon id="ST4W9" title="" points="1216,2030,1217,2047,1185,2046,1185,2031" /><polygon id="ST4W10" title="" points="1220,2031,1251,2031,1251,2047,1221,2045" /><polygon id="ST4W11" title="" points="1255,2030,1286,2029,1287,2045,1256,2046" /><polygon id="ST4W12" title="" points="1290,2029,1320,2028,1322,2045,1291,2045" /><polygon id="ST4W13" title="" points="1324,2026,1354,2026,1356,2041,1325,2045" /><polygon id="ST4W14" title="" points="1359,2025,1390,2023,1391,2039,1361,2040" /><polygon id="ST4W15" title="" points="1392,2022,1425,2018,1425,2037,1396,2038" /><polygon id="ST4W16" title="" points="1429,2018,1459,2013,1461,2031,1430,2033" /><polygon id="ST4W17" title="" points="1461,2013,1494,2008,1497,2025,1465,2028" /><polygon id="ST4W18" title="" points="1498,2007,1527,2001,1533,2019,1501,2022" /><polygon id="ST4SW1" title="" points="1534,1999,1558,1987,1574,2003,1542,2014" /><polygon id="ST4SW2" title="" points="1660,1931,1684,1910,1696,1922,1674,1941" /><polygon id="ST4SE1" title="" points="1718,1324,1732,1313,1753,1342,1738,1351" /><polygon id="ST4SE2" title="" points="1611,1225,1624,1210,1650,1232,1637,1245" /><polygon id="ST4E1" title="" points="1619,1207,1611,1223,1572,1207,1581,1192" /><polygon id="ST4E2" title="" points="1532,1190,1540,1173,1577,1189,1571,1205" /><polygon id="ST4E3" title="" points="1530,1186,1498,1181,1501,1166,1533,1170" /><polygon id="ST4E4" title="" points="1463,1176,1464,1160,1497,1165,1494,1181" /><polygon id="ST4E5" title="" points="1459,1175,1428,1171,1430,1156,1461,1158" /><polygon id="ST4E6" title="" points="1424,1170,1393,1167,1395,1152,1425,1154" /><polygon id="ST4E7" title="" points="1390,1167,1359,1164,1360,1148,1390,1150" /><polygon id="ST4E8" title="" points="1325,1161,1325,1145,1356,1146,1356,1164" /><polygon id="ST4E9" title="" points="1289,1159,1292,1143,1320,1144,1322,1161" /><polygon id="ST4E10" title="" points="1288,1142,1288,1159,1255,1159,1256,1142" /><polygon id="ST4E11" title="" points="1220,1158,1220,1143,1251,1143,1251,1159" /><polygon id="ST4E12" title="" points="1185,1159,1185,1144,1216,1143,1217,1158" /><polygon id="ST4E13" title="" points="1181,1158,1151,1159,1149,1144,1180,1143" /><polygon id="ST4E14" title="" points="1148,1160,1116,1160,1115,1145,1147,1142" /><polygon id="ST4E15" title="" points="1081,1162,1081,1146,1113,1145,1112,1161" /><polygon id="ST4E16" title="" points="1046,1163,1046,1148,1078,1146,1077,1161" /><polygon id="ST4E17" title="" points="1013,1169,1011,1152,1042,1151,1043,1166" /><polygon id="ST4E18" title="" points="1008,1170,977,1174,975,1158,1006,1153" /><polygon id="ST4E19" title="" points="940,1163,971,1159,975,1175,944,1180" /><polygon id="ST4E20" title="" points="908,1188,904,1171,935,1165,941,1182" /><polygon id="ST4NW1" title="" points="840,1187,852,1183,857,1190,843,1196" /><polygon id="ST4NW2" title="" points="820,1196,832,1191,836,1196,823,1203" /><polygon id="ST4NW3" title="" points="798,1217,797,1210,814,1198,817,1206" /><polygon id="ST4NW4" title="" points="780,1228,776,1222,788,1214,796,1220" /><polygon id="ST4NW5" title="" points="770,1225,777,1232,763,1239,758,1232" /><polygon id="ST4NW6" title="" points="750,1252,744,1246,753,1237,759,1242" /><polygon id="ST4NW7" title="" points="736,1263,731,1256,741,1250,746,1254" /><polygon id="ST4NW8" title="" points="719,1282,713,1274,726,1262,735,1267" /><polygon id="ST4NW9" title="" points="709,1296,702,1288,710,1282,719,1286" /><polygon id="ST4NW10" title="" points="698,1309,692,1304,697,1294,706,1298" /><polygon id="ST2NE1" title="" points="935,1326,957,1320,965,1334,940,1342" /><polygon id="ST2NE2" title="" points="908,1339,927,1330,936,1344,915,1353" /><polygon id="ST2NE3" title="" points="887,1352,901,1344,911,1356,898,1366" /><polygon id="ST2NE4" title="" points="881,1380,869,1368,882,1359,896,1369" /><polygon id="ST2NE5" title="" points="839,1398,856,1379,869,1390,851,1408" /><polygon id="ST2NE6" title="" points="821,1422,836,1402,849,1412,835,1432" /><polygon id="ST2N1" title="" points="790,1479,810,1484,803,1520,786,1518" /><polygon id="ST2N2" title="" points="780,1534,800,1535,798,1576,780,1574" /><polygon id="ST2N3" title="" points="780,1578,798,1579,798,1618,781,1618" /><polygon id="ST2N4" title="" points="781,1622,798,1622,800,1662,785,1660" /><polygon id="ST2NW1" title="" points="784,1680,803,1674,810,1710,792,1716" /><polygon id="ST2NW2" title="" points="793,1723,810,1712,823,1735,804,1745" /><polygon id="ST2NW3" title="" points="807,1746,823,1737,835,1761,821,1769" /><polygon id="ST2NW4" title="" points="822,1774,836,1764,849,1785,837,1792" /><polygon id="ST2NW5" title="" points="839,1798,851,1786,869,1804,857,1819" /><polygon id="ST2NW6" title="" points="869,1828,881,1815,893,1828,884,1836" /><polygon id="ST2NW7" title="" points="887,1842,897,1829,910,1840,900,1850" /><polygon id="ST2NW8" title="" points="906,1857,912,1841,934,1851,924,1866" /><polygon id="ST2NW9" title="" points="931,1865,938,1852,964,1863,951,1876" /><polygon id="ST2W1" title="" points="986,1867,1010,1871,1006,1887,984,1883" /><polygon id="ST2W2" title="" points="1012,1871,1036,1875,1033,1889,1013,1888" /><polygon id="ST2W3" title="" points="1040,1875,1063,1879,1062,1892,1038,1893" /><polygon id="ST2W4" title="" points="1066,1879,1089,1880,1089,1894,1065,1895" /><polygon id="ST2W5" title="" points="1094,1881,1116,1881,1114,1896,1093,1897" /><polygon id="ST2W6" title="" points="1120,1899,1120,1882,1143,1883,1143,1899" /><polygon id="ST2W7" title="" points="1146,1882,1251,1884,1251,1898,1149,1898" /><polygon id="ST2W8" title="" points="1256,1882,1277,1883,1277,1896,1256,1901" /><polygon id="ST2W9" title="" points="1282,1882,1304,1882,1304,1897,1283,1895" /><polygon id="ST2W10" title="" points="1308,1880,1330,1878,1333,1895,1309,1896" /><polygon id="ST2W11" title="" points="1336,1878,1359,1875,1360,1890,1338,1888" /><polygon id="ST2W12" title="" points="1361,1874,1385,1871,1387,1887,1366,1889" /><polygon id="ST2W13" title="" points="1389,1871,1412,1868,1416,1883,1392,1887" /><polygon id="ST2SW1" title="" points="1436,1862,1460,1853,1465,1867,1440,1876" /><polygon id="ST2SW2" title="" points="1464,1851,1484,1841,1491,1854,1467,1864" /><polygon id="ST2SW3" title="" points="1488,1839,1507,1824,1516,1839,1498,1852" /><polygon id="ST2SW4" title="" points="1511,1822,1528,1808,1541,1819,1521,1834" /><polygon id="ST2SW5" title="" points="1530,1805,1547,1785,1561,1800,1545,1815" /><polygon id="ST2SW6" title="" points="1550,1782,1566,1764,1578,1776,1562,1794" /><polygon id="ST2SW7" title="" points="1566,1761,1577,1736,1591,1745,1582,1767" /><polygon id="ST2SW8" title="" points="1586,1712,1592,1689,1609,1692,1604,1718" /><polygon id="ST2SW9" title="" points="1596,1661,1612,1664,1610,1689,1594,1684" /><polygon id="ST2SW10" title="" points="1599,1621,1617,1620,1617,1661,1598,1659" /><polygon id="ST2SE1" title="" points="1619,1618,1601,1617,1601,1578,1618,1577" /><polygon id="ST2SE2" title="" points="1597,1536,1615,1535,1618,1573,1601,1576" /><polygon id="ST2SE3" title="" points="1593,1510,1611,1506,1614,1530,1597,1533" /><polygon id="ST2SE4" title="" points="1588,1485,1604,1478,1610,1503,1593,1510" /><polygon id="ST2SE5" title="" points="1567,1434,1584,1427,1595,1455,1580,1461" /><polygon id="ST2SE6" title="" points="1550,1412,1562,1402,1578,1419,1565,1431" /><polygon id="ST2SE7" title="" points="1532,1391,1542,1379,1559,1398,1547,1410" /><polygon id="ST2SE8" title="" points="1511,1373,1521,1360,1535,1374,1529,1388" /><polygon id="ST2SE9" title="" points="1486,1354,1497,1342,1516,1356,1506,1372" /><polygon id="ST2SE10" title="" points="1462,1344,1472,1331,1492,1340,1483,1353" /><polygon id="ST2SE11" title="" points="1436,1331,1442,1319,1465,1327,1460,1343" /><polygon id="ST2E1" title="" points="1413,1327,1391,1325,1390,1309,1412,1311" /><polygon id="ST2E2" title="" points="1361,1321,1363,1306,1386,1308,1384,1325" /><polygon id="ST2E3" title="" points="1335,1318,1339,1304,1357,1305,1359,1323" /><polygon id="ST2E4" title="" points="1307,1317,1313,1301,1330,1301,1333,1319" /><polygon id="ST2E5" title="" points="1283,1314,1283,1299,1304,1300,1305,1316" /><polygon id="ST2E6" title="" points="1277,1298,1279,1314,1255,1311,1259,1299" /><polygon id="ST2E7" title="" points="1249,1314,1147,1313,1148,1299,1249,1299" /><polygon id="ST2E8" title="" points="1121,1314,1120,1298,1141,1297,1144,1313" /><polygon id="ST2E9" title="" points="1117,1314,1094,1315,1093,1298,1114,1297" /><polygon id="ST2E10" title="" points="1089,1316,1068,1318,1066,1303,1087,1301" /><polygon id="ST2E11" title="" points="1059,1303,1062,1318,1041,1320,1040,1306" /><polygon id="ST2E12" title="" points="1036,1321,1013,1324,1013,1308,1032,1306" /><polygon id="ST2E13" title="" points="1010,1325,987,1330,986,1313,1006,1311" /></svg>