<?xml version="1.0" encoding="utf-8"?>
<!-- Generator: Adobe Illustrator 27.5.0, SVG Export Plug-In . SVG Version: 6.00 Build 0)  -->
<svg version="1.1" id="Map" xmlns="http://www.w3.org/2000/svg" xmlns:xlink="http://www.w3.org/1999/xlink" x="0px" y="0px"
	 viewBox="0 0 2554 3183" style="enable-background:new 0 0 2554 3183;" xml:space="preserve">
<style type="text/css">
	.st0{fill:#BBF9B2;}
	.st1{fill:#BBF9B2;stroke:#FCFCFC;stroke-width:5;stroke-miterlimit:10;}
	.st2{fill:none;stroke:#FCFCFC;stroke-width:5;stroke-miterlimit:10;}
</style>
<polygon id="_x31_01-1" points="1960,1232 2000,1264 2168,1104 2064,1024 "/>
<polygon id="_x31_02-1" points="1960,984 1912,1216 1960,1232 2064,1024 "/>
<polygon id="_x31_03-1" points="1840,976 1960,984 1912,1216 1840,1160 "/>
<polygon id="_x31_04-1" points="1752,976 1840,976 1840,1104 1808,1104 1808,1200 1752,1200 "/>
<polygon id="_x31_05-1" points="1616,976 1752,976 1752,1200 1616,1200 "/>
<polygon id="_x31_06-1" points="1472,976 1616,976 1616,1200 1472,1200 "/>
<polygon id="_x31_07-1" points="1344,976 1472,976 1472,1200 1344,1200 "/>
<polygon id="_x31_08-1" points="1208,976 1344,976 1344,1200 1208,1200 "/>
<polygon id="_x31_09-1" points="1072,976 1208,976 1208,1200 1072,1200 "/>
<polygon id="_x31_10-1" points="944,976 1072,976 1072,1200 944,1200 "/>
<polygon id="_x31_11-1" points="840,976 944,976 944,1200 872,1200 872,1104 840,1104 "/>
<polygon id="_x31_12-1" points="728,984 776,1208 840,1160 840,976 "/>
<polygon id="_x31_13-1" points="624,1024 728,984 776,1208 728,1232 "/>
<polygon id="_x31_14-1" points="520,1096 624,1024 728,1232 688,1256 "/>
<polygon id="_x31_15-1" points="456,1184 656,1296 688,1256 520,1096 "/>
<polygon id="_x31_16-1" points="408,1304 456,1184 656,1296 624,1376 "/>
<polygon id="_x31_17-1" points="376,1416 600,1464 624,1376 408,1304 "/>
<polygon id="_x31_18-1" points="360,1544 376,1416 600,1464 584,1560 "/>
<polygon id="_x31_19-1" points="360,1672 584,1656 584,1560 360,1544 "/>
<polygon id="_x31_20-1" points="592,1752 584,1656 360,1672 376,1800 "/>
<polygon id="_x31_21-1" points="624,1840 592,1752 376,1800 408,1912 "/>
<polygon id="_x31_22-1" points="456,2040 656,1920 624,1840 408,1912 "/>
<polygon id="_x31_23-1" points="688,1960 520,2120 456,2040 656,1920 "/>
<polygon id="_x31_24-1" points="720,1984 616,2192 520,2120 688,1960 "/>
<polygon id="_x31_25-1" points="768,2008 720,2232 616,2192 720,1984 "/>
<polygon id="_x31_26-1" points="848,2240 720,2232 768,2008 848,2064 "/>
<polygon id="_x31_27-1" points="872,2024 936,2024 936,2240 848,2240 848,2152 872,2152 "/>
<polygon id="_x31_28-1" points="1072,2024 936,2024 936,2240 1072,2240 "/>
<polygon id="_x31_29-1" points="1200,2024 1200,2224 1072,2224 1072,2024 "/>
<polygon id="_x31_30-1" points="1200,2024 1328,2024 1328,2224 1200,2224 "/>
<polygon id="_x31_31-1" points="1352,2024 1352,2224 1472,2224 1472,2024 "/>
<polygon id="_x31_32-1" points="1608,2024 1472,2024 1472,2224 1608,2224 "/>
<polygon id="_x31_33-1" points="1744,2024 1608,2024 1608,2248 1744,2248 "/>
<polygon id="_x31_34-1" points="1808,2120 1840,2120 1840,2248 1744,2248 1744,2024 1808,2024 "/>
<polygon id="_x31_35-1" points="1904,2008 1960,2232 1840,2248 1840,2056 "/>
<polygon id="_x31_36-1" points="1952,1992 2056,2192 1960,2232 1904,2008 "/>
<polygon id="_x31_37-1" points="1992,1960 2152,2112 2056,2192 1952,1992 "/>
<polygon id="_x31_38-1" points="2024,1928 2216,2032 2152,2112 1992,1960 "/>
<polygon id="_x31_39-1" points="2056,1848 2264,1920 2216,2032 2024,1928 "/>
<polygon id="_x31_40-1" points="2080,1760 2296,1808 2264,1920 2056,1848 "/>
<polygon id="_x31_41-1" points="2096,1664 2320,1672 2296,1808 2080,1760 "/>
<polygon id="_x31_42-1" points="2096,1568 2320,1552 2320,1672 2096,1664 "/>
<polygon id="_x31_43-1" points="2080,1472 2096,1568 2320,1552 2304,1424 "/>
<polygon id="_x31_44-1" points="2056,1384 2272,1304 2304,1424 2080,1472 "/>
<polygon id="_x31_45-1" points="2024,1304 2056,1384 2272,1304 2224,1192 "/>
<polygon id="_x31_46-1" points="2168,1104 2224,1192 2024,1304 2000,1264 "/>
<polygon id="_x31_01-2" points="2120,904 2224,952 2272,992 2168,1104 2064,1024 "/>
<polygon id="_x31_02-2" points="1984,872 2120,904 2064,1024 1960,984 "/>
<polygon id="_x31_04-2" points="1752,864 1840,864 1840,976 1752,976 "/>
<polygon id="_x31_11-2" points="840,864 936,864 936,976 840,976 "/>
<polygon id="_x31_12-2" points="840,976 840,864 696,872 728,984 "/>
<polygon id="_x31_13-2" points="560,912 624,1024 728,984 696,872 "/>
<polygon id="_x31_14-2" points="408,1000 448,960 560,912 624,1024 520,1096 "/>
<polygon id="_x31_15-2" points="320,1112 408,1000 520,1096 456,1184 "/>
<polygon id="_x31_16-2" points="256,1256 408,1304 456,1184 320,1112 "/>
<polygon id="_x31_17-2" points="224,1392 376,1416 408,1304 256,1256 "/>
<polygon id="_x31_18-2" points="200,1536 360,1544 376,1416 224,1392 "/>
<polygon id="_x31_19-2" points="200,1688 360,1672 360,1544 200,1536 "/>
<polygon id="_x31_20-2" points="224,1832 376,1800 360,1672 200,1688 "/>
<polygon id="_x31_21-2" points="256,1968 408,1912 376,1800 224,1832 "/>
<polygon id="_x31_22-2" points="320,2120 456,2040 408,1912 256,1968 "/>
<polygon id="_x31_23-2" points="408,2224 520,2120 456,2040 320,2120 "/>
<polygon id="_x31_24-2" points="560,2320 616,2192 520,2120 408,2224 456,2272 "/>
<polygon id="_x31_25-2" points="696,2360 560,2320 616,2192 720,2232 "/>
<polygon id="_x31_27-2" points="936,2368 848,2368 848,2240 936,2240 "/>
<polygon id="_x31_28-2" points="1072,2368 936,2368 936,2240 1072,2240 "/>
<polygon id="_x31_29-2" points="1200,2368 1072,2368 1072,2224 1200,2224 "/>
<polygon id="_x31_30-2" points="1344,2224 1344,2328 1200,2328 1200,2224 "/>
<polygon id="_x31_31-2" points="1472,2328 1344,2328 1344,2224 1472,2224 "/>
<polygon id="_x31_32-2" points="1608,2360 1536,2360 1536,2328 1472,2328 1472,2224 1608,2224 "/>
<polygon id="_x31_33-2" points="1744,2360 1608,2360 1608,2248 1744,2248 "/>
<polygon id="_x31_34-2" points="1840,2360 1744,2360 1744,2248 1840,2248 "/>
<polygon id="_x31_36-2" points="2120,2312 1992,2352 1960,2232 2056,2192 "/>
<polygon id="_x31_37-2" points="2272,2224 2248,2256 2120,2312 2056,2192 2152,2112 "/>
<polygon id="_x31_38-2" points="2336,2152 2272,2224 2152,2112 2216,2032 2296,2080 2280,2112 "/>
<polygon id="_x31_39-2" points="2352,1952 2296,2080 2216,2032 2264,1920 "/>
<polygon id="_x31_40-2" points="2392,1824 2352,1952 2264,1920 2296,1808 "/>
<polygon id="_x31_42-2" points="2408,1544 2408,1680 2320,1672 2320,1552 "/>
<polygon id="_x31_44-2" points="2360,1280 2392,1408 2304,1424 2272,1304 "/>
<polygon id="_x31_45-2" points="2304,1144 2360,1280 2272,1304 2224,1192 "/>
<polygon id="_x31_46-2" points="2328,1064 2280,1104 2304,1144 2224,1192 2168,1104 2272,992 "/>
<polygon id="_x33_17" points="240,1240 192,1400 96,1384 136,1248 200,1264 208,1232 "/>
<polygon id="_x33_18" points="176,1544 72,1544 96,1384 192,1400 "/>
<polygon id="_x33_19" points="176,1680 72,1688 72,1544 176,1544 "/>
<polygon id="_x33_20" points="192,1824 96,1848 72,1688 176,1680 "/>
<polygon id="_x33_21" points="240,1976 208,1992 192,1952 128,1976 96,1848 192,1824 "/>
<polygon id="_x34_01" points="2216,712 2296,632 2272,608 2280,600 2248,568 2168,664 "/>
<polygon id="_x34_02" points="2048,592 2168,664 2240,576 2096,488 "/>
<polygon id="_x34_03" points="1936,440 2096,488 2048,592 1912,552 "/>
<polygon id="_x34_06" points="1432,460 1600,460 1600,544 1432,544 "/>
<polygon id="_x34_08" points="1072,460 1248,460 1248,544 1072,544 "/>
<polygon id="_x34_10" points="752,440 832,432 920,432 920,544 840,544 776,552 "/>
<polygon id="_x34_11" points="640,592 776,552 752,440 600,488 "/>
<polygon id="_x34_12" points="384,640 456,568 544,512 600,488 640,592 584,616 520,664 464,712 "/>
<polygon id="_x36_01" points="2176,520 2232,440 2176,384 2120,488 "/>
<polygon id="_x36_02" points="2048,280 2176,384 2120,488 2096,472 2000,432 "/>
<polygon id="_x36_03" points="1904,184 2048,280 2000,432 1880,408 "/>
<polygon id="_x36_04" points="1752,120 1904,184 1880,408 1752,408 "/>
<polygon id="_x36_05" points="1616,80 1752,120 1752,408 1616,408 "/>
<polygon id="_x36_06" points="1480,56 1616,80 1616,408 1480,408 "/>
<polygon id="_x36_07" points="1344,48 1480,56 1480,408 1344,408 "/>
<polygon id="_x36_08" points="1208,56 1344,48 1344,408 1208,408 "/>
<polygon id="_x36_09" points="1072,80 1208,56 1208,408 1072,408 "/>
<polygon id="_x36_10" points="936,120 1072,80 1072,408 936,408 "/>
<polygon id="_x36_11" points="784,184 936,120 936,408 808,408 "/>
<polygon id="_x36_12" points="640,272 688,432 808,408 784,184 "/>
<polygon id="_x36_13" points="504,520 592,472 688,432 640,272 448,440 "/>
<polygon id="_x34_28" points="384,2560 440,2616 512,2528 464,2480 "/>
<polygon id="_x34_29" points="632,2608 512,2528 440,2616 592,2712 "/>
<polygon id="_x34_30" points="768,2648 752,2760 592,2712 632,2608 "/>
<polygon id="_x34_31" points="912,2656 912,2768 752,2760 768,2648 "/>
<polygon id="_x34_32" points="1080,2656 1080,2768 912,2768 912,2656 "/>
<polygon id="_x34_33" points="1248,2656 1248,2768 1080,2768 1080,2656 "/>
<polygon id="_x34_34" points="1432,2656 1432,2768 1248,2768 1248,2656 "/>
<polygon id="_x34_35" points="1600,2656 1600,2768 1432,2768 1432,2656 "/>
<polygon id="_x34_36" points="1768,2656 1768,2768 1600,2768 1600,2656 "/>
<polygon id="_x34_37" points="1848,2656 1912,2648 1928,2760 1848,2768 1768,2768 1768,2656 "/>
<polygon id="_x34_38" points="2048,2608 2088,2712 1928,2760 1912,2648 "/>
<polygon id="_x34_39" points="2216,2488 2296,2560 2240,2616 2160,2672 2088,2712 2048,2608 2112,2568 2168,2528 "/>
<polygon id="_x36_20" points="504,2704 560,2736 504,2840 448,2784 "/>
<polygon id="_x36_21" points="680,2792 560,2736 504,2840 632,2944 "/>
<polygon id="_x36_22" points="808,2816 784,3040 632,2944 680,2792 744,2808 "/>
<polygon id="_x36_23" points="936,2816 936,3104 784,3040 808,2816 "/>
<polygon id="_x36_24" points="1072,2816 1072,3144 936,3104 936,2816 "/>
<polygon id="_x36_25" points="1208,2816 1208,3168 1072,3144 1072,2816 "/>
<polygon id="_x36_26" points="1344,2816 1344,3176 1208,3168 1208,2816 "/>
<polygon id="_x36_27" points="1472,2816 1472,3168 1344,3176 1344,2816 "/>
<polygon id="_x36_28" points="1608,2816 1608,3144 1472,3168 1472,2816 "/>
<polygon id="_x36_29" points="1744,2816 1744,3104 1608,3144 1608,2816 "/>
<polygon id="_x36_30" points="1872,2816 1896,3040 1744,3104 1744,2816 "/>
<polygon id="_x36_31" points="2000,2792 2048,2952 1896,3040 1872,2816 "/>
<polygon id="_x36_32" points="2176,2704 2232,2784 2144,2872 2048,2952 2000,2792 2096,2752 "/>
<polygon id="SB_3054" points="520,816 544,800 568,832 544,848 "/>
<polygon id="SB_3053" points="568,784 592,816 568,832 544,800 "/>
<polygon id="SB_3001" points="2160,816 2136,848 2112,832 2136,800 "/>
<polygon id="SB_3002" points="2112,784 2136,800 2112,832 2088,816 "/>
<polygon id="SB_3003" points="2064,800 2088,768 2112,784 2088,816 "/>
<polygon id="SB_3004" points="2065,756 2088,768 2064,800 2044,791 "/>
<polygon id="SB_3005" points="2037,742 2065,756 2044,791 2016,777 "/>
<polygon id="SB_3006" points="2009,728 2037,742 2016,777 1995,770 "/>
<polygon id="SB_3007" points="1981,721 1967,763 1995,770 2009,728 "/>
<polygon id="SB_3008" points="1953,714 1981,721 1967,763 1946,756 "/>
<polygon id="SB_3009" points="1925,707 1953,714 1946,756 1918,749 "/>
<polygon id="SB_3010" points="1897,700 1925,707 1918,749 1890,742 "/>
<polygon id="SB_3011" points="1869,693 1897,700 1890,742 1869,735 "/>
<polygon id="SB_3012" points="1841,735 1841,693 1869,693 1869,735 "/>
<polygon id="SB_3014" points="1778,693 1841,693 1841,735 1778,735 "/>
<polygon id="SB_3015" points="1743,735 1743,693 1778,693 1778,735 "/>
<polygon id="SB_3016" points="1708,693 1743,693 1743,735 1708,735 "/>
<polygon id="SB_3017" points="1680,693 1708,693 1708,735 1680,735 "/>
<polygon id="SB_3018" points="1645,693 1680,693 1680,735 1645,735 "/>
<polygon id="SB_3019" points="1610,693 1645,693 1645,735 1610,735 "/>
<polygon id="SB_3020" points="1575,693 1610,693 1610,735 1575,735 "/>
<polygon id="SB_3021" points="1540,693 1575,693 1575,735 1540,735 "/>
<polygon id="SB_3022" points="1505,693 1540,693 1540,735 1505,735 "/>
<polygon id="SB_3024" points="1442,693 1505,693 1505,735 1442,735 "/>
<polygon id="SB_3025" points="1407,693 1442,693 1442,735 1407,735 "/>
<polygon id="SB_3026" points="1372,693 1407,693 1407,735 1372,735 "/>
<polygon id="SB_3027" points="1309,693 1372,693 1372,735 1309,735 "/>
<polygon id="SB_3029" points="1274,693 1309,693 1309,735 1274,735 "/>
<polygon id="SB_3030" points="1239,693 1274,693 1274,735 1239,735 "/>
<polygon id="SB_3031" points="1204,693 1239,693 1239,735 1204,735 "/>
<polygon id="SB_3032" points="1169,693 1204,693 1204,735 1169,735 "/>
<polygon id="SB_3033" points="1141,693 1169,693 1169,735 1141,735 "/>
<polygon id="SB_3034" points="1106,693 1141,693 1141,735 1106,735 "/>
<polygon id="SB_3035" points="1036,693 1106,693 1106,735 1036,735 "/>
<polygon id="SB_3037" points="973,693 1036,693 1036,735 973,735 "/>
<polygon id="SB_3039" points="938,693 973,693 973,735 938,735 "/>
<polygon id="SB_3040" points="903,693 938,693 938,735 903,735 "/>
<polygon id="SB_3041" points="868,693 903,693 903,735 868,735 "/>
<polygon id="SB_3042" points="840,693 868,693 868,735 840,735 "/>
<polygon id="SB_3043" points="812,700 840,693 840,735 812,735 "/>
<polygon id="SB_3044" points="784,707 812,700 812,735 791,735 "/>
<polygon id="SB_3045" points="756,714 784,707 791,735 763,742 "/>
<polygon id="SB_3046" points="728,721 756,714 763,742 735,749 "/>
<polygon id="SB_3047" points="700,728 728,721 735,749 714,756 "/>
<polygon id="SB_3048" points="672,735 700,728 714,756 686,763 "/>
<polygon id="SB_3049" points="644,749 672,735 686,763 658,777 "/>
<polygon id="SB_3050" points="623,756 644,749 658,777 637,791 "/>
<polygon id="SB_3051" points="595,770 623,756 637,791 612,804 "/>
<polygon id="SB_3052" points="567,784 595,770 612,804 592,816 "/>
<polygon id="_x31_03-2" points="1840,864 1984,872 1960,984 1840,976 "/>
<polygon id="BOX_1" points="1712,896 1752,896 1752,908 1712,908 "/>
<polygon id="BOX_2" points="1712,880 1752,880 1752,896 1712,896 "/>
<polygon id="BOX_3" points="1712,864 1752,864 1752,880 1712,880 "/>
<polygon id="BOX_4" points="1680,956 1716,956 1716,976 1680,976 "/>
<polygon id="BOX_5" points="1680,940 1716,940 1716,956 1680,956 "/>
<polygon id="BOX_6" points="1680,924 1716,924 1716,940 1680,940 "/>
<polygon id="BOX_7" points="1680,908 1716,908 1716,924 1680,924 "/>
<polygon id="BOX_8" points="1680,896 1712,896 1712,908 1680,908 "/>
<polygon id="BOX_9" points="1680,880 1712,880 1712,896 1680,896 "/>
<polygon id="BOX_10" points="1680,864 1712,864 1712,880 1680,880 "/>
<polygon id="BOX_11" points="1644,896 1680,896 1680,908 1644,908 "/>
<polygon id="BOX_12" points="1644,880 1680,880 1680,896 1644,896 "/>
<polygon id="BOX_13" points="1644,864 1680,864 1680,880 1644,880 "/>
<polygon id="BOX_14" points="1636,956 1680,956 1680,976 1636,976 "/>
<polygon id="BOX_15" points="1636,940 1680,940 1680,956 1636,956 "/>
<polygon id="BOX_16" points="1636,924 1680,924 1680,940 1636,940 "/>
<polygon id="BOX_17" points="1636,908 1680,908 1680,924 1636,924 "/>
<polygon id="BOX_18" points="1612,908 1644,908 1644,896 1612,896 "/>
<polygon id="BOX_19" points="1612,880 1644,880 1644,896 1612,896 "/>
<polygon id="BOX_20" points="1612,864 1644,864 1644,880 1612,880 "/>
<polygon id="BOX_21" points="1576,908 1612,908 1612,896 1576,896 "/>
<polygon id="BOX_22" points="1576,880 1612,880 1612,896 1576,896 "/>
<polygon id="BOX_23" points="1576,864 1612,864 1612,880 1576,880 "/>
<polygon id="BOX_24" points="1544,956 1588,956 1588,976 1544,976 "/>
<polygon id="BOX_25" points="1544,940 1588,940 1588,956 1544,956 "/>
<polygon id="BOX_26" points="1544,924 1588,924 1588,940 1544,940 "/>
<polygon id="BOX_27" points="1544,908 1588,908 1588,924 1544,924 "/>
<polygon id="BOX_28" points="1544,896 1544,908 1576,908 1576,896 "/>
<polygon id="BOX_29" points="1544,880 1544,896 1576,896 1576,880 "/>
<polygon id="BOX_30" points="1544,864 1544,880 1576,880 1576,864 "/>
<polygon id="BOX_31" points="1508,908 1544,908 1544,896 1508,896 "/>
<polygon id="BOX_32" points="1508,880 1544,880 1544,896 1508,896 "/>
<polygon id="BOX_33" points="1508,864 1544,864 1544,880 1508,880 "/>
<polygon id="BOX_34" points="1500,956 1544,956 1544,976 1500,976 "/>
<polygon id="BOX_35" points="1500,940 1544,940 1544,956 1500,956 "/>
<polygon id="BOX_36" points="1500,924 1544,924 1544,940 1500,940 "/>
<polygon id="BOX_37" points="1500,908 1544,908 1544,924 1500,924 "/>
<polygon id="BOX_38" points="1476,896 1508,896 1508,908 1476,908 "/>
<polygon id="BOX_39" points="1476,880 1508,880 1508,896 1476,896 "/>
<polygon id="BOX_40" points="1476,864 1508,864 1508,880 1476,880 "/>
<polygon id="BOX_41" points="1444,896 1444,908 1476,908 1476,896 "/>
<polygon id="BOX_42" points="1444,880 1444,896 1476,896 1476,880 "/>
<polygon id="BOX_43" points="1444,864 1476,864 1476,880 1444,880 "/>
<polygon id="BOX_44" points="1452,956 1452,976 1408,976 1408,956 "/>
<polygon id="BOX_45" points="1408,940 1452,940 1452,956 1408,956 "/>
<polygon id="BOX_46" points="1408,924 1452,924 1452,940 1408,940 "/>
<polygon id="BOX_47" points="1408,908 1452,908 1452,924 1408,924 "/>
<polygon id="BOX_48" points="1408,892 1444,892 1444,908 1408,908 "/>
<polygon id="BOX_49" points="1408,880 1444,880 1444,892 1408,892 "/>
<polygon id="BOX_50" points="1408,864 1444,864 1444,880 1408,880 "/>
<polygon id="BOX_51" points="1376,908 1408,908 1408,892 1376,892 "/>
<polygon id="BOX_52" points="1376,880 1408,880 1408,892 1376,892 "/>
<polygon id="BOX_53" points="1376,864 1408,864 1408,880 1376,880 "/>
<polygon id="BOX_54" points="1364,956 1408,956 1408,976 1364,976 "/>
<polygon id="BOX_55" points="1364,940 1408,940 1408,956 1364,956 "/>
<polygon id="BOX_56" points="1364,924 1408,924 1408,940 1364,940 "/>
<polygon id="BOX_57" points="1364,908 1408,908 1408,924 1364,924 "/>
<polygon id="BOX_58" points="1340,892 1340,908 1376,908 1376,892 "/>
<polygon id="BOX_59" points="1340,880 1376,880 1376,892 1340,892 "/>
<polygon id="BOX_60" points="1340,864 1376,864 1376,880 1340,880 "/>
<polygon id="BOX_61" points="1308,908 1340,908 1340,892 1308,892 "/>
<polygon id="BOX_62" points="1308,880 1340,880 1340,892 1308,892 "/>
<polygon id="BOX_63" points="1308,864 1340,864 1340,880 1308,880 "/>
<polygon id="BOX_64" points="1316,956 1316,976 1272,976 1272,956 "/>
<polygon id="BOX_65" points="1272,940 1316,940 1316,956 1272,956 "/>
<polygon id="BOX_66" points="1272,924 1316,924 1316,940 1272,940 "/>
<polygon id="BOX_67" points="1272,908 1316,908 1316,924 1272,924 "/>
<polygon id="BOX_68" points="1272,892 1308,892 1308,908 1272,908 "/>
<polygon id="BOX_69" points="1272,880 1308,880 1308,892 1272,892 "/>
<polygon id="BOX_70" points="1272,864 1308,864 1308,880 1272,880 "/>
<polygon id="BOX_71" points="1240,908 1272,908 1272,892 1240,892 "/>
<polygon id="BOX_72" points="1240,880 1272,880 1272,892 1240,892 "/>
<polygon id="BOX_73" points="1240,864 1272,864 1272,880 1240,880 "/>
<polygon id="BOX_74" points="1232,956 1272,956 1272,976 1232,976 "/>
<polygon id="BOX_75" points="1232,940 1272,940 1272,956 1232,956 "/>
<polygon id="BOX_76" points="1232,924 1272,924 1272,940 1232,940 "/>
<polygon id="BOX_77" points="1232,908 1272,908 1272,924 1232,924 "/>
<polygon id="BOX_78" points="1208,908 1208,892 1240,892 1240,908 "/>
<polygon id="BOX_79" points="1208,880 1240,880 1240,892 1208,892 "/>
<polygon id="BOX_80" points="1208,864 1240,864 1240,880 1208,880 "/>
<polygon id="BOX_81" points="1172,892 1208,892 1208,908 1172,908 "/>
<polygon id="BOX_82" points="1172,880 1208,880 1208,892 1172,892 "/>
<polygon id="BOX_83" points="1172,864 1208,864 1208,880 1172,880 "/>
<polygon id="BOX_84" points="1140,956 1184,956 1184,976 1140,976 "/>
<polygon id="BOX_85" points="1184,940 1140,940 1140,956 1184,956 "/>
<polygon id="BOX_86" points="1184,924 1184,940 1140,940 1140,924 "/>
<polygon id="BOX_87" points="1140,908 1184,908 1184,924 1140,924 "/>
<polygon id="BOX_88" points="1140,908 1172,908 1172,892 1140,892 "/>
<polygon id="BOX_89" points="1140,880 1172,880 1172,892 1140,892 "/>
<polygon id="BOX_90" points="1140,864 1172,864 1172,880 1140,880 "/>
<polygon id="BOX_91" points="1104,908 1140,908 1140,892 1104,892 "/>
<polygon id="BOX_92" points="1104,880 1104,892 1140,892 1140,880 "/>
<polygon id="BOX_93" points="1104,864 1140,864 1140,880 1104,880 "/>
<polygon id="BOX_94" points="1096,956 1140,956 1140,976 1096,976 "/>
<polygon id="BOX_95" points="1096,940 1140,940 1140,956 1096,956 "/>
<polygon id="BOX_96" points="1096,924 1140,924 1140,940 1096,940 "/>
<polygon id="BOX_97" points="1096,908 1140,908 1140,924 1096,924 "/>
<polygon id="BOX_98" points="1072,892 1104,892 1104,908 1072,908 "/>
<polygon id="BOX_99" points="1072,880 1104,880 1104,892 1072,892 "/>
<polygon id="BOX_100" points="1072,864 1104,864 1104,880 1072,880 "/>
<polygon id="BOX_101" points="1040,892 1072,892 1072,908 1040,908 "/>
<polygon id="BOX_102" points="1040,880 1072,880 1072,892 1040,892 "/>
<polygon id="BOX_103" points="1040,864 1072,864 1072,880 1040,880 "/>
<polygon id="BOX_104" points="1048,956 1048,976 1004,976 1004,956 "/>
<polygon id="BOX_105" points="1048,940 1048,956 1004,956 1004,940 "/>
<polygon id="BOX_106" points="1048,924 1048,940 1004,940 1004,924 "/>
<polygon id="BOX_107" points="1004,908 1048,908 1048,924 1004,924 "/>
<polygon id="BOX_108" points="1004,892 1040,892 1040,908 1004,908 "/>
<polygon id="BOX_109" points="1004,880 1004,892 1040,892 1040,880 "/>
<polygon id="BOX_110" points="1004,864 1040,864 1040,880 1004,880 "/>
<polygon id="BOX_111" points="972,892 1004,892 1004,908 972,908 "/>
<polygon id="BOX_112" points="972,880 1004,880 1004,892 972,892 "/>
<polygon id="BOX_113" points="972,864 1004,864 1004,880 972,880 "/>
<polygon id="BOX_114" points="960,956 1004,956 1004,976 960,976 "/>
<polygon id="BOX_115" points="960,940 960,956 1004,956 1004,940 "/>
<polygon id="BOX_116" points="960,924 1004,924 1004,940 960,940 "/>
<polygon id="BOX_117" points="960,908 1004,908 1004,924 960,924 "/>
<polygon id="BOX_118" points="936,908 972,908 972,892 936,892 "/>
<polygon id="BOX_119" points="936,880 972,880 972,892 936,892 "/>
<polygon id="BOX_120" points="936,864 972,864 972,880 936,880 "/>
<polygon id="_x34_09" points="1004,432 1004,460 1072,460 1072,544 920,544 920,432 "/>
<polygon id="SB_5020" points="1036,432 1036,460 1004,460 1004,432 "/>
<polygon id="SB_5019" points="1072,432 1072,460 1036,460 1036,432 "/>
<polygon id="SB_5013" points="1272,432 1272,460 1240,460 1240,432 "/>
<polygon id="SB_5014" points="1208,432 1240,432 1240,460 1208,460 "/>
<polygon id="SB_5015" points="1172,432 1208,432 1208,460 1172,460 "/>
<polygon id="SB_5016" points="1140,432 1172,432 1172,460 1140,460 "/>
<polygon id="SB_5017" points="1104,432 1140,432 1140,460 1104,460 "/>
<polygon id="SB_5018" points="1072,432 1104,432 1104,460 1072,460 "/>
<polygon id="SB_5009-5012" points="1408,432 1408,460 1272,460 1272,432 "/>
<polygon id="SB_5001" points="1680,460 1644,460 1644,432 1680,432 "/>
<polygon id="SB_5002" points="1612,432 1644,432 1644,460 1612,460 "/>
<polygon id="SB_5003" points="1576,432 1612,432 1612,460 1576,460 "/>
<polygon id="SB_5004" points="1544,432 1576,432 1576,460 1544,460 "/>
<polygon id="SB_5005" points="1508,432 1544,432 1544,460 1508,460 "/>
<polygon id="SB_5006" points="1476,432 1508,432 1508,460 1476,460 "/>
<polygon id="SB_5007" points="1444,432 1476,432 1476,460 1444,460 "/>
<polygon id="SB_5008" points="1408,432 1444,432 1444,460 1408,460 "/>
<polygon id="_x34_04" points="1764,428 1844,428 1936,440 1912,552 1840,544 1764,544 "/>
<polygon id="_x34_05" points="1600,544 1764,544 1764,428 1680,432 1680,460 1600,460 "/>
<polygon id="_x34_07" points="1432,544 1248,544 1248,460 1432,460 "/>
<polygon id="SB_3108" points="2140,2344 2164,2372 2136,2388 2116,2360 "/>
<polygon id="SB_3107" points="2092,2376 2116,2360 2136,2388 2112,2404 "/>
<polygon id="SB_VOC" points="544,2344 588,2376 568,2404 520,2372 "/>
<polygon id="SB_3057" points="612,2392 588,2376 568,2404 596,2420 "/>
<polygon id="SB_3058" points="636,2404 624,2432 596,2420 612,2392 "/>
<polygon id="SB_3059" points="660,2416 636,2404 624,2432 648,2444 "/>
<polygon id="SB_3060" points="684,2428 660,2416 648,2444 672,2456 "/>
<polygon id="SB_3061" points="712,2436 704,2468 672,2456 684,2428 "/>
<polygon id="SB_3062" points="736,2444 728,2472 704,2468 712,2436 "/>
<polygon id="SB_3063" points="764,2448 760,2480 728,2472 736,2444 "/>
<polygon id="SB_3064" points="788,2452 784,2484 760,2480 764,2448 "/>
<polygon id="SB_3065" points="816,2456 812,2488 784,2484 788,2452 "/>
<polygon id="SB_3066" points="844,2456 844,2492 812,2488 816,2456 "/>
<polygon id="SB_3067" points="872,2456 872,2492 844,2492 844,2456 "/>
<polygon id="SB_3068" points="904,2456 904,2492 872,2492 872,2456 "/>
<polygon id="SB_3069" points="936,2456 936,2492 904,2492 904,2456 "/>
<polygon id="SB_3070" points="972,2456 972,2492 936,2492 936,2456 "/>
<polygon id="SB_3071" points="1004,2456 1004,2492 972,2492 972,2456 "/>
<polygon id="SB_3072" points="1036,2456 1036,2492 1004,2492 1004,2456 "/>
<polygon id="SB_3074" points="1104,2456 1104,2492 1036,2492 1036,2456 "/>
<polygon id="SB_3075" points="1172,2456 1172,2492 1104,2492 1104,2456 "/>
<polygon id="SB_3077" points="1204,2456 1204,2492 1172,2492 1172,2456 "/>
<polygon id="SB_3078" points="1240,2456 1240,2492 1204,2492 1204,2456 "/>
<polygon id="SB_3085" points="1440,2456 1508,2456 1508,2492 1440,2492 "/>
<polygon id="SB_3087" points="1544,2456 1544,2492 1508,2492 1508,2456 "/>
<polygon id="SB_3088" points="1580,2456 1580,2492 1544,2492 1544,2456 "/>
<polygon id="SB_3089-3091" points="1680,2492 1680,2456 1580,2456 1580,2492 "/>
<polygon id="SB_3092" points="1712,2456 1712,2492 1680,2492 1680,2456 "/>
<polygon id="SB_3093" points="1744,2456 1744,2492 1712,2492 1712,2456 "/>
<polygon id="SB_3094" points="1780,2456 1780,2492 1744,2492 1744,2456 "/>
<polygon id="SB_3095" points="1812,2456 1812,2492 1780,2492 1780,2456 "/>
<polygon id="SB_3096" points="1840,2456 1840,2492 1812,2492 1812,2456 "/>
<polygon id="SB_3097" points="1868,2456 1872,2488 1840,2492 1840,2456 "/>
<polygon id="SB_3098" points="1896,2452 1900,2484 1872,2488 1868,2456 "/>
<polygon id="SB_3099" points="1920,2448 1928,2480 1900,2484 1896,2452 "/>
<polygon id="SB_3100" points="1948,2440 1956,2472 1928,2480 1920,2448 "/>
<polygon id="SB_3101" points="1972,2432 1984,2464 1956,2472 1948,2440 "/>
<polygon id="SB_3102" points="2000,2424 2012,2456 1984,2464 1972,2432 "/>
<polygon id="SB_3103" points="2024,2416 2036,2444 2012,2456 2000,2424 "/>
<polygon id="SB_3104" points="2048,2404 2064,2432 2036,2444 2024,2416 "/>
<polygon id="SB_3105" points="2072,2392 2088,2416 2064,2432 2048,2404 "/>
<polygon id="SB_3106" points="2072,2392 2092,2376 2112,2404 2088,2416 "/>
<polygon id="_x31_43-2" points="2392,1408 2408,1544 2320,1552 2304,1424 "/>
<polygon id="_x31_41-2" points="2408,1680 2392,1824 2296,1808 2320,1672 "/>
<polygon id="_x31_35-2" points="1840,2248 1840,2360 1992,2352 1960,2232 "/>
<polygon id="_x31_26-2" points="848,2368 696,2360 720,2232 848,2240 "/>
<g id="Field">
	<rect x="881.1" y="1297.7" class="st0" width="925.9" height="596.6"/>
	<g>
		<g>
			<rect x="903.1" y="1311" class="st1" width="881.8" height="568.3"/>
			<rect x="903.1" y="1425.4" class="st2" width="137.2" height="338"/>
			<rect x="903.1" y="1517.6" class="st2" width="49" height="156.8"/>
			<circle class="st2" cx="1344" cy="1596" r="78.4"/>
			<g>
				<rect x="1647.7" y="1427.1" class="st2" width="137.2" height="338"/>
				<rect x="1735.8" y="1520" class="st2" width="49" height="156.8"/>
			</g>
			<line class="st2" x1="1344" y1="1880.1" x2="1344" y2="1311.9"/>
		</g>
	</g>
</g>
</svg>
